<svg viewBox="0 0 32 32" xmlns="http://www.w3.org/2000/svg"><g fill="none" fill-rule="evenodd"><path d="M28.64 21.487c0 .862-.212 1.795-.637 2.798-.425 1.004-1.093 1.989-2.004 2.955-.911.967-2.075 1.752-3.491 2.355-1.416.604-3.066.905-4.95.905-1.428 0-2.727-.135-3.897-.406a10.96 10.96 0 0 1-3.186-1.265c-.954-.573-1.831-1.327-2.632-2.263a13.456 13.456 0 0 1-1.828-2.853 14.863 14.863 0 0 1-1.136-3.371 18.333 18.333 0 0 1-.38-3.805c0-2.18.318-4.131.952-5.855.634-1.724 1.543-3.198 2.725-4.423A11.88 11.88 0 0 1 12.33 3.46C13.92 2.82 15.613 2.5 17.41 2.5c2.192 0 4.144.437 5.855 1.312 1.712.874 3.023 1.954 3.934 3.24.912 1.288 1.367 2.504 1.367 3.649 0 .628-.222 1.182-.665 1.662-.443.48-.98.72-1.607.72-.702 0-1.228-.166-1.58-.498-.35-.333-.741-.905-1.172-1.718-.714-1.342-1.554-2.346-2.521-3.011-.966-.665-2.158-.997-3.574-.997-2.253 0-4.048.856-5.384 2.567-1.335 1.712-2.003 4.144-2.003 7.296 0 2.105.295 3.857.886 5.254.59 1.398 1.428 2.442 2.512 3.13 1.083.69 2.352 1.035 3.805 1.035 1.576 0 2.909-.391 3.998-1.172 1.09-.782 1.912-1.931 2.466-3.445.234-.714.523-1.296.868-1.745.345-.45.899-.675 1.662-.675.653 0 1.213.228 1.68.684.469.455.703 1.022.703 1.699" fill="#F42F42" class="fill-f42f42"></path><path d="M28.64 21.487c0 .862-.212 1.795-.637 2.798-.425 1.004-1.093 1.989-2.004 2.955-.911.967-2.075 1.752-3.491 2.355-1.416.604-3.066.905-4.95.905-1.428 0-2.727-.135-3.897-.406a10.96 10.96 0 0 1-3.186-1.265c-.954-.573-1.831-1.327-2.632-2.263a13.456 13.456 0 0 1-1.828-2.853 14.863 14.863 0 0 1-1.136-3.371 18.333 18.333 0 0 1-.38-3.805c0-2.18.318-4.131.952-5.855.634-1.724 1.543-3.198 2.725-4.423A11.88 11.88 0 0 1 12.33 3.46C13.92 2.82 15.613 2.5 17.41 2.5c2.192 0 4.144.437 5.855 1.312 1.712.874 3.023 1.954 3.934 3.24.912 1.288 1.367 2.504 1.367 3.649 0 .628-.222 1.182-.665 1.662-.443.48-.98.72-1.607.72-.702 0-1.228-.166-1.58-.498-.35-.333-.741-.905-1.172-1.718-.714-1.342-1.554-2.346-2.521-3.011-.966-.665-2.158-.997-3.574-.997-2.253 0-4.048.856-5.384 2.567-1.335 1.712-2.003 4.144-2.003 7.296 0 2.105.295 3.857.886 5.254.59 1.398 1.428 2.442 2.512 3.13 1.083.69 2.352 1.035 3.805 1.035 1.576 0 2.909-.391 3.998-1.172 1.09-.782 1.912-1.931 2.466-3.445.234-.714.523-1.296.868-1.745.345-.45.899-.675 1.662-.675.653 0 1.213.228 1.68.684.469.455.703 1.022.703 1.699Z" stroke="#330910" class="stroke-330910"></path><path d="M6.859 11.2C7.418 9.68 8.224 8.367 9.255 7.3a10.424 10.424 0 0 1 3.637-2.45" stroke="#ffffff" stroke-dasharray="1,2,6,2,3" stroke-linecap="round" stroke-linejoin="round" class="stroke-ffffff"></path><path d="M28.103 21.088c-.075.626-.262 1.297-.56 2.002-.4.944-1.042 1.888-1.908 2.807-.858.91-1.976 1.663-3.322 2.237-1.348.575-2.947.866-4.754.866-1.383 0-2.656-.133-3.785-.394a10.466 10.466 0 0 1-3.042-1.207c-.903-.542-1.748-1.268-2.51-2.158a12.98 12.98 0 0 1-1.756-2.745 14.511 14.511 0 0 1-1.098-3.258c-.216-1.022-.321-2.124-.346-3.265-.005.19-.021.371-.021.564 0 1.302.123 2.547.367 3.701a14.511 14.511 0 0 0 1.098 3.258 12.98 12.98 0 0 0 1.757 2.745c.76.89 1.606 1.616 2.509 2.158.906.544 1.929.95 3.042 1.207 1.129.261 2.402.394 3.785.394 1.807 0 3.406-.29 4.754-.866 1.346-.574 2.464-1.327 3.322-2.237.866-.919 1.508-1.863 1.908-2.807.396-.937.597-1.813.597-2.604 0-.14-.013-.272-.037-.398" fill="#332E09" opacity=".204" class="fill-332e09"></path></g></svg>